<svg xmlns="http://www.w3.org/2000/svg" xmlns:xlink="http://www.w3.org/1999/xlink" width="500" height="500" version="1.0" viewBox="0 0 375 375"><defs><path id="reuse-0" d="m212.9 242.2 99.9-92.5 12 13-100 92.5Zm0 0"/><path id="reuse-1" d="M73 119.1 257.3 85l27.5 148.2-184.4 34.1Zm0 0"/><path id="reuse-2" d="M217 156h23v18h-23Zm0 0"/></defs><defs><clipPath id="a"><path d="M187.5 0a187.5 187.5 0 1 0 0 375 187.5 187.5 0 0 0 0-375m0 0"/></clipPath><clipPath id="b"><path d="M3 3h369v369H3Zm0 0"/></clipPath><clipPath id="c"><path d="M187.5 2.9a184.6 184.6 0 1 0 0 369.3 184.6 184.6 0 0 0 0-369.3m0 0"/></clipPath><clipPath id="d"><path d="M30.9 30.9H344V344H31Zm0 0"/></clipPath><clipPath id="e"><path d="M187.5 30.9a156.6 156.6 0 1 0 0 313.2 156.6 156.6 0 0 0 0-313.2m0 0"/></clipPath><clipPath id="f"><path d="M37.5 37.8h299.7v299.7H37.5Zm0 0"/></clipPath><clipPath id="g"><path d="M187.4 37.8a149.9 149.9 0 1 0 0 299.7 149.9 149.9 0 0 0 0-299.7m0 0"/></clipPath><clipPath id="h"><path d="M214 150h110v104H214Zm0 0"/></clipPath><clipPath id="i"><use xlink:href="#reuse-0"/></clipPath><clipPath id="j"><path d="m215 240.2 95.6-88.5a3 3 0 0 1 4.2.2l8 8.5a3 3 0 0 1-.2 4.3L227 253a3 3 0 0 1-4.3-.1l-7.9-8.6a3 3 0 0 1 .2-4.2m0 0"/></clipPath><clipPath id="k"><path d="M215 152h108v101H215Zm0 0"/></clipPath><clipPath id="l"><path d="m214.6 242.3 98-90.9 10.4 11.2-98 90.8Zm0 0"/></clipPath><clipPath id="m"><path d="M216.3 240.7 311 153a2.2 2.2 0 0 1 1.6-.5c.6 0 1.2.2 1.6.7l7.3 7.9a2.2 2.2 0 0 1-.1 3.1L226.6 252a2.3 2.3 0 0 1-1.6.6 2.2 2.2 0 0 1-1.6-.7l-7.3-7.9a2.3 2.3 0 0 1 .2-3.2m0 0"/></clipPath><clipPath id="n"><path d="M265 199h7v7h-7Zm0 0"/></clipPath><clipPath id="o"><path d="m264.7 202.1 4.4-3.8 3.8 4.4-4.4 3.9Zm0 0"/></clipPath><clipPath id="p"><path d="M267 200.2a3 3 0 0 0-.4 4.2 3 3 0 1 0 .3-4.2m0 0"/></clipPath><clipPath id="q"><path d="M220 134h23v99h-23Zm0 0"/></clipPath><clipPath id="r"><use xlink:href="#reuse-1"/></clipPath><clipPath id="s"><use xlink:href="#reuse-1"/></clipPath><clipPath id="t"><use xlink:href="#reuse-1"/></clipPath><clipPath id="u"><path d="M134 200h76v39h-76Zm0 0"/></clipPath><clipPath id="v"><use xlink:href="#reuse-1"/></clipPath><clipPath id="w"><use xlink:href="#reuse-1"/></clipPath><clipPath id="x"><use xlink:href="#reuse-1"/></clipPath><clipPath id="y"><path d="M127 222h95v19h-95Zm0 0"/></clipPath><clipPath id="z"><use xlink:href="#reuse-1"/></clipPath><clipPath id="A"><use xlink:href="#reuse-1"/></clipPath><clipPath id="B"><use xlink:href="#reuse-1"/></clipPath><clipPath id="C"><path d="M178 103h22v27h-22Zm0 0"/></clipPath><clipPath id="D"><use xlink:href="#reuse-1"/></clipPath><clipPath id="E"><use xlink:href="#reuse-1"/></clipPath><clipPath id="F"><use xlink:href="#reuse-1"/></clipPath><clipPath id="G"><path d="M191 96h16v31h-16Zm0 0"/></clipPath><clipPath id="H"><use xlink:href="#reuse-1"/></clipPath><clipPath id="I"><use xlink:href="#reuse-1"/></clipPath><clipPath id="J"><use xlink:href="#reuse-1"/></clipPath><clipPath id="K"><path d="M182 100h74v66h-74Zm0 0"/></clipPath><clipPath id="L"><use xlink:href="#reuse-1"/></clipPath><clipPath id="M"><use xlink:href="#reuse-1"/></clipPath><clipPath id="N"><use xlink:href="#reuse-1"/></clipPath><clipPath id="O"><path d="M227 113h37v41h-37Zm0 0"/></clipPath><clipPath id="P"><use xlink:href="#reuse-1"/></clipPath><clipPath id="Q"><use xlink:href="#reuse-1"/></clipPath><clipPath id="R"><use xlink:href="#reuse-1"/></clipPath><clipPath id="S"><path d="M231 100h34v33h-34Zm0 0"/></clipPath><clipPath id="T"><use xlink:href="#reuse-1"/></clipPath><clipPath id="U"><use xlink:href="#reuse-1"/></clipPath><clipPath id="V"><use xlink:href="#reuse-1"/></clipPath><clipPath id="W"><path d="M229 223h14v10h-14Zm0 0"/></clipPath><clipPath id="X"><use xlink:href="#reuse-1"/></clipPath><clipPath id="Y"><use xlink:href="#reuse-1"/></clipPath><clipPath id="Z"><use xlink:href="#reuse-1"/></clipPath><clipPath id="aa"><path d="M111 138h25v69h-25Zm0 0"/></clipPath><clipPath id="ab"><use xlink:href="#reuse-1"/></clipPath><clipPath id="ac"><use xlink:href="#reuse-1"/></clipPath><clipPath id="ad"><use xlink:href="#reuse-1"/></clipPath><clipPath id="ae"><path d="M92 179h24v84H92Zm0 0"/></clipPath><clipPath id="af"><use xlink:href="#reuse-1"/></clipPath><clipPath id="ag"><use xlink:href="#reuse-1"/></clipPath><clipPath id="ah"><use xlink:href="#reuse-1"/></clipPath><clipPath id="ai"><path d="M98 174h49v91H98Zm0 0"/></clipPath><clipPath id="aj"><use xlink:href="#reuse-1"/></clipPath><clipPath id="ak"><use xlink:href="#reuse-1"/></clipPath><clipPath id="al"><use xlink:href="#reuse-1"/></clipPath><clipPath id="am"><path d="M126 135h119v107H126Zm0 0"/></clipPath><clipPath id="an"><use xlink:href="#reuse-1"/></clipPath><clipPath id="ao"><use xlink:href="#reuse-1"/></clipPath><clipPath id="ap"><use xlink:href="#reuse-1"/></clipPath><clipPath id="aq"><path d="M208 220h37v23h-37Zm0 0"/></clipPath><clipPath id="ar"><use xlink:href="#reuse-1"/></clipPath><clipPath id="as"><use xlink:href="#reuse-1"/></clipPath><clipPath id="at"><use xlink:href="#reuse-1"/></clipPath><clipPath id="au"><path d="M121 242h6v12h-6Zm0 0"/></clipPath><clipPath id="av"><use xlink:href="#reuse-1"/></clipPath><clipPath id="aw"><use xlink:href="#reuse-1"/></clipPath><clipPath id="ax"><use xlink:href="#reuse-1"/></clipPath><clipPath id="ay"><path d="M121 244h8v11h-8Zm0 0"/></clipPath><clipPath id="az"><use xlink:href="#reuse-1"/></clipPath><clipPath id="aA"><use xlink:href="#reuse-1"/></clipPath><clipPath id="aB"><use xlink:href="#reuse-1"/></clipPath><clipPath id="aC"><use xlink:href="#reuse-2"/></clipPath><clipPath id="aD"><use xlink:href="#reuse-1"/></clipPath><clipPath id="aE"><use xlink:href="#reuse-1"/></clipPath><clipPath id="aF"><use xlink:href="#reuse-1"/></clipPath><clipPath id="aG"><path d="M117 252h16v12h-16Zm0 0"/></clipPath><clipPath id="aH"><use xlink:href="#reuse-1"/></clipPath><clipPath id="aI"><use xlink:href="#reuse-1"/></clipPath><clipPath id="aJ"><use xlink:href="#reuse-1"/></clipPath><clipPath id="aK"><path d="M114 237h15v22h-15Zm0 0"/></clipPath><clipPath id="aL"><use xlink:href="#reuse-1"/></clipPath><clipPath id="aM"><use xlink:href="#reuse-1"/></clipPath><clipPath id="aN"><use xlink:href="#reuse-1"/></clipPath><clipPath id="aO"><path d="M124 234h8v11h-8Zm0 0"/></clipPath><clipPath id="aP"><use xlink:href="#reuse-1"/></clipPath><clipPath id="aQ"><use xlink:href="#reuse-1"/></clipPath><clipPath id="aR"><use xlink:href="#reuse-1"/></clipPath><clipPath id="aS"><path d="M122 238h7v12h-7Zm0 0"/></clipPath><clipPath id="aT"><use xlink:href="#reuse-1"/></clipPath><clipPath id="aU"><use xlink:href="#reuse-1"/></clipPath><clipPath id="aV"><use xlink:href="#reuse-1"/></clipPath><clipPath id="aW"><use xlink:href="#reuse-2"/></clipPath><clipPath id="aX"><use xlink:href="#reuse-1"/></clipPath><clipPath id="aY"><use xlink:href="#reuse-1"/></clipPath><clipPath id="aZ"><use xlink:href="#reuse-1"/></clipPath><clipPath id="ba"><path d="M187 144h61v54h-61Zm0 0"/></clipPath><clipPath id="bb"><use xlink:href="#reuse-1"/></clipPath><clipPath id="bc"><use xlink:href="#reuse-1"/></clipPath><clipPath id="bd"><use xlink:href="#reuse-1"/></clipPath></defs><g clip-path="url(#a)"><path d="M-37.5-37.5h450v450h-450z"/></g><g clip-path="url(#d)"><g clip-path="url(#e)"><path fill="#c41230" d="M30.9 30.9H344V344H31Zm0 0"/></g></g><g clip-path="url(#f)"><g clip-path="url(#g)"><path fill="#fff" d="M37.5 37.8h299.7v299.7H37.5Zm0 0"/></g></g><path d="m70.8 209.3-.8-2.8-4.2.7-4.3.7-5 .9-4.7.6h-3.4q-2.9-.4-4.5-2c-1-1-1.7-2.3-2-3.8a7 7 0 0 1 0-1.2 5.8 5.8 0 0 1 0-1.2l.5-1.2a2.5 2.5 0 0 1 1-.9q1-.2 1.6.5c.5.4.8 1 .9 1.6l-.1 1.3q-.2.6-.8 1.3l-1 1a7.3 7.3 0 0 0 2 .4l2.7-.2 2.5-.5 4.1-.7 5.9-1 7.9-1.5-.2-3.1 1.7-.3 1.9 11ZM62 223.2a18 18 0 0 0-1.3-2q-1-1.3-2-1.6-1.1-.3-2.2 0-.6.2-1 .6l-.5.6q-.5 1-.2 2l.5 1 1 1Zm-4.3 9.4q-1.5-.3-2.3-1-.8-.7-1.2-2c-.3-.9-.3-1.7-.2-2.4q.3-1 1-1.7-1.3-.8-2.2-1.7-.8-.9-1.3-2.5-.6-2 0-3.5.7-1.6 2.7-2.2a5.2 5.2 0 0 1 1.6-.2q.8 0 1.7.5c.6.3 1.3.8 2 1.5q1 1 2.2 2.7l.8 1.2 1 1.5 1-.4c1.4-.4 2.4-.9 2.8-1.5.5-.6.6-1.5.2-2.5l-.1-.5a11 11 0 0 0-.2-.5l-2 .3q-1.4.2-2.2-.2-.9-.5-1.1-1.4a2 2 0 0 1 0-1.4q.3-.7 1-1.1 2.1-.4 4 1.1 1.8 1.5 2.8 4.7c.3 1 .5 2 .5 2.8 0 .8-.3 1.6-.6 2.2q-.6 1-1.8 1.7-1.2.7-3 1.2l-7 2.1-.8.5q-.3.3-.1.7c0 .3.2.4.3.5l.7.3.2.1Zm4.8 8a7.3 7.3 0 0 0 0 1.6q0 .8.3 1.5.7 1.4 2.6 1.7 1.8.4 4.7-1 3-1.4 3.9-2.9 1-1.5.2-3a4.3 4.3 0 0 0-1-1.3 10 10 0 0 0-1.4-1Zm10.7-5.4a9 9 0 0 1 2.5 1.4c.7.5 1.3 1.3 1.7 2.3a6.6 6.6 0 0 1 .7 2.7 5.9 5.9 0 0 1-.6 2.7q-.6 1.3-1.8 2.5c-.9.8-2 1.5-3.3 2.2q-1.9.9-3.7 1c-1.1.2-2.2.1-3.2-.1a7.1 7.1 0 0 1-2.7-1.4 6.8 6.8 0 0 1-1.8-2.3q-.6-1.3-.7-2.5a6.5 6.5 0 0 1 .4-2.4l-1.1.6L57 243l-2.6 1.3.6 2.6-1.4.7-4-8.6 1.4-.6 1.3 1.7 2.6-1.2 2.5-1.2 8.5-4a90 90 0 0 1 1.1-.6l1-.5.8-.4.8-.4-.7-2.3 1.2-.6 4.8 4.8-.2.5Zm6.6 24a14 14 0 0 0-1-1 18 18 0 0 0-.9-.5c-.9-.6-1.7-1-2.4-1a3.6 3.6 0 0 0-2 .7l-.9.8-.3.8q-.2 1 .5 2l.8.8q.4.3 1.3.6Zm-1.3 10.2q-1.6.2-2.5-.2c-.7-.3-1.2-.8-1.7-1.6q-.9-1.1-1-2.2 0-1.1.5-2c-1-.2-1.9-.5-2.6-1a6 6 0 0 1-2-1.9q-1.2-1.7-1-3.4 0-1.7 1.8-2.8a5 5 0 0 1 1.5-.7q.7-.2 1.8 0c.7 0 1.4.3 2.3.7l3 2 1 .9 1.4 1 .9-.5c1.2-.9 2-1.6 2.2-2.4q.4-1-.5-2.4a9 9 0 0 0-.4-.5 19 19 0 0 0-.3-.4l-1.8 1q-1.3.6-2.2.4a2.1 2.1 0 0 1-1.4-1 2.1 2.1 0 0 1-.4-1.4c0-.5.3-1 .6-1.3q2-1 4.1-.1 2.2.8 4.1 3.6 1 1.4 1.3 2.6.4 1.1.1 2.2-.3 1-1.2 2.1-.9 1-2.5 2.2l-6 4q-.4.3-.6.7-.2.4 0 .8.3.3.5.3l.8.1h.2ZM93 286l-1.2 1-6-6.5 1-1 1.8 1.2q1-.8 2-1.9l2-1.7 2.4-2.3c1-1 1.6-1.7 1.9-2.4q.4-.9-.5-1.8-.7-.7-1.7-1-1-.4-2.5-.5l-3.8 3.6-1.9 1.7-2 2 1.1 1.7-1.1 1-6.1-6.5 1-1 1.8 1.3a113 113 0 0 0 2.1-2l1.9-1.7 1.5-1.4.9-.8a27 27 0 0 0 1.4-1.4l.6-.7-1.3-2 1-.8 6 3v.7l-1.8 2a17 17 0 0 1 2 0q.8.1 1.5.4.8.2 1.4.6l1.2 1q1.8 1.9 1.6 3.9-.2 2-2.5 4.2l-2.9 2.6-2 1.8a82 82 0 0 0-1.9 2Zm15 1.2q1 .8 1.7.7.7-.2 1.4-1 1-1.4 1-2.5c0-.8-.2-1.4-.8-1.9q-.5-.4-1.1-.5-.7-.2-1.5 0-.9.2-1.9.8c-.7.4-1.4 1-2 1.8Zm-4.4-1.2c-1.2 1.6-1.7 3.1-1.6 4.5q.2 2 1.9 3.3 1.2 1 2.4 1 1.2.1 2.6-.4l.6 1.3q-2 1.4-4.3 1.1-2.2-.2-4.3-1.9c-1-.7-1.8-1.6-2.4-2.6a7.5 7.5 0 0 1-1-3 8 8 0 0 1 .4-3.2q.5-1.7 1.8-3.4 1.2-1.6 2.8-2.5a8.8 8.8 0 0 1 3.2-1 8.3 8.3 0 0 1 3.4.2 8.8 8.8 0 0 1 3 1.6c1 .7 1.7 1.4 2.1 2.3q.7 1.2.9 2.6a6.4 6.4 0 0 1-.3 2.7 8.5 8.5 0 0 1-1.4 2.7q-.6.8-1.3 1.3Zm19.9 11 1.4 2q.5 1 .6 1.8l-.1 1.6q-.2.8-.6 1.5a5 5 0 0 1-1.6 1.7q-1 .6-2.2.7-1.2.2-2.6-.2-1.4-.3-2.9-1.2-1.5-.9-2.5-2-1-1-1.8-2.5l2-3.5 2.3 1.4-1.1 2.8q.4.9 1 1.4.4.5 1 .9 1.5.8 2.5.7 1 0 1.5-1l.3-.9-.1-.8a5.6 5.6 0 0 0-.6-1.1l-1-1.5-1.1-1.3q-1.4-1.8-1.7-3.4c-.2-1.1 0-2.2.7-3.3q1.1-2 3.4-2.3 2.2-.3 5.3 1.5c1 .6 1.7 1.2 2.3 1.8l1.6 2.1-2 3.2-2.4-1.3 1-2.8-.6-.8-1-.7q-1-.6-2-.5-1 0-1.5 1l-.2.6v.9l.7 1 1.1 1.5Zm14.4 7.4q1.2.5 1.8.2.7-.3 1.1-1.3.7-1.6.4-2.7-.3-1.1-1.3-1.6a2.8 2.8 0 0 0-1.3-.2q-.7 0-1.4.5-.8.3-1.6 1.2-.8.9-1.5 2.3Zm-4.6 0c-.7 2-.8 3.5-.3 4.8q.7 1.9 2.7 2.7 1.4.6 2.6.4 1.2-.3 2.4-1.1l.8 1a6 6 0 0 1-3.7 2.2q-2.3.4-4.7-.6-1.8-.8-3-2a7.4 7.4 0 0 1-2.3-5.8q.1-1.8 1-3.8a9.3 9.3 0 0 1 2-3 8.7 8.7 0 0 1 2.8-2 8.2 8.2 0 0 1 3.3-.6c1.1 0 2.3.3 3.4.7q1.6.7 2.6 1.7a6.6 6.6 0 0 1 1.5 2.3q.5 1.3.4 2.7 0 1.5-.6 3a8.2 8.2 0 0 1-1 1.6Zm48.5-.6-.7 4.4-.7 4.3-.1 1.2-.7 4.4-.6 4.3 2.8.8-.3 1.7-10.8-1.6.3-1.8 2.8.1.8-4.2.6-4.4 1-6.1-10.4 15.6-1.3-.2-5.3-18-2.2 14.7 3.2 1-.3 1.6-8.4-1.2.3-1.8h3.3l2.7-18.4-2.8-.7.3-1.7 7 1 5.3 17.5 10-15.2 7.3 1.1-.2 1.8Zm13.5 11.2-1.2.4-1 .5q-1.5.6-2 1.5a3.5 3.5 0 0 0-.6 2q0 .8.3 1.2l.5.7q.8.7 2 .6a2.8 2.8 0 0 0 1-.2q.6-.2 1.3-.8Zm8 6.5q-.6 1.5-1.4 2-1 .7-2.2.7-1.5 0-2.4-.4-1-.6-1.4-1.5-1.2 1.2-2.3 1.8-1 .6-2.7.7c-1.4 0-2.5-.3-3.4-1q-1.4-1-1.5-3a4.9 4.9 0 0 1 .2-1.6q.2-.8 1-1.6.6-.8 1.9-1.5 1.2-.8 3.1-1.5l1.4-.5 1.6-.6v-1q-.1-2.2-.8-3.2-.7-.9-2.4-.8h-.5l-.6.1-.2 2q0 1.4-.7 2.1-.7.7-1.6.8-.8 0-1.4-.5-.6-.4-.8-1.2.2-2.1 2-3.5 2-1.5 5.3-1.6 1.7-.1 2.9.2c.8.2 1.4.6 2 1.1q.7.8 1.1 2.1.4 1.4.5 3.3l.3 7.2c0 .4.1.7.3 1 .1.2.4.3.7.3q.3 0 .5-.3l.5-.5.1-.2ZM225 318l.3 1.5-8.8 1.8-.3-1.5 2-.9a67 67 0 0 0-.5-2.7l-.5-2.6-.7-3.3q-.3-1.9-1-2.7-.5-.9-1.7-.6-1 .2-1.9 1-.8.6-1.6 1.8l1 5 .5 2.6.6 2.7h2l.3 1.5-8.7 1.8-.3-1.5 2-.8a83 83 0 0 0-.5-2.8l-.5-2.5-2.9-14.3-2.7.2-.2-1.4 6.4-2.9.6.2.8 4.9 1.1 5.5 1.1-1.6a7.7 7.7 0 0 1 1.1-1.2 5 5 0 0 1 1.3-.9 7.7 7.7 0 0 1 1.6-.5c1.6-.3 3 0 4 .7q1.6 1.3 2.2 4.4l.8 3.8.5 2.6.6 2.7Zm0 0"/><path d="m229 299.8.6.2 1.5 4.8 3.1 9.4c.4 1 .6 2 .8 2.8l.2 2.3a8.7 8.7 0 0 1-.3 1.8 9 9 0 0 1-.6 1.7q-.7 1.5-1.7 2.3a7.7 7.7 0 0 1-2.2 1.1l-1.6.4-1.4-.1a3.5 3.5 0 0 1-1-.5l-.7-.6q-.1-1.1.2-2 .4-.7 1.3-1 .9-.3 1.8 0 1 .3 2 .9l.5.3v-.1q.4-1.3-.3-3.4l-1.7-5.3-1.9-5.7-.8-2.3a82 82 0 0 0-.7-1.9l-2.3.5-.4-1.3Zm-4.5-7.4q1.2-.4 2.2.1 1 .5 1.4 1.6.4 1.2-.1 2.2c-.4.7-1 1.2-1.7 1.4a3 3 0 0 1-2.2 0c-.7-.4-1.2-1-1.5-1.7q-.4-1.2.2-2.2a3 3 0 0 1 1.7-1.4m16.4 4.4c-2.2 1-2.3 3.8-.2 8.1q1.5 3.4 3.1 4.6 1.6 1.2 3.2.4 1.7-.8 1.8-2.7 0-2-1.5-5.4c-2-4.4-4.2-6-6.4-5m-.7-1.6a8.7 8.7 0 0 1 3.2-.8 8.6 8.6 0 0 1 3.4.4q1.6.6 3 1.8c.9.8 1.6 1.8 2.2 3q1 2 1 3.7a8.1 8.1 0 0 1-.5 3.3 8 8 0 0 1-1.8 2.8q-1.2 1.3-3 2.1c-1 .5-2.2.8-3.4 1a8 8 0 0 1-3.3-.5q-1.5-.5-2.8-1.7-1.3-1.2-2.2-3.1-1-2-1-3.7 0-1.9.6-3.4a8.5 8.5 0 0 1 1.8-2.9 8.9 8.9 0 0 1 2.8-2m34.3-2.2.9 1.3-7.4 5-1-1.3 1.6-1.5-1.5-2.3-1.5-2.2-1.9-2.8q-1-1.6-2-2.2-.8-.5-1.8.2-.9.6-1.4 1.6-.5 1-.8 2.3l3 4.3 1.4 2.1 1.6 2.3 1.9-.8.9 1.3-7.5 5-.8-1.2 1.5-1.6-1.6-2.3-1.4-2.1-1.1-1.7-.7-1-.6-.9-.5-.7a11 11 0 0 0-.7-.8l-2 1-.8-1 4-5.5h.6l1.7 2.2.4-2 .5-1.5.8-1.3 1.3-1q2-1.4 4-1 2 .5 3.8 3.2l2.2 3.2 1.4 2.2 1.6 2.3Zm4-11.8q1-1 .7-2.2c-.2-.9-.7-1.8-1.6-2.7q-1.3-1.5-2.6-1.8c-.8-.2-1.6 0-2.2.6q-1 1-.7 2.2.2 1.2 1.5 2.7 1.4 1.4 2.6 1.7c.9.3 1.6 0 2.3-.5m4.5 6.8q-.8.8-1.6 1.2c.2.7.6 1.3 1 1.8q1.2 1.2 2.3 1 1.2-.2 2.4-1.4 2-1.8 2.4-3.4.5-1.6-.3-2.5-.5-.5-1.3-.5-.9 0-2 1.1Zm-2.4-18.4-2.4 2.3a5.5 5.5 0 0 1 2.5 1.5q.8.9 1.2 2 .4 1.1.2 2.3-.1 1.2-.8 2.4-.6 1.1-1.8 2.2a9 9 0 0 1-2.2 1.5l.3.8q0 .2.3.5 1 1 2.3-.3l2.8-2.6q2.6-2.5 4.6-2.6 2-.2 3.4 1.3a4.8 4.8 0 0 1 1.2 2.2q.3 1.2 0 2.7-.4 1.4-1.4 3-1 1.7-3 3.5-2.7 2.6-4.5 3.1-1.8.5-3-.7a3 3 0 0 1-.8-2q0-1 .6-3-1 .4-2 .1a3.4 3.4 0 0 1-1.4-.9q-.8-.8-1-2l.2-2.5a6 6 0 0 1-2.9 0c-1-.3-1.7-.8-2.4-1.5a5.5 5.5 0 0 1-1.3-2 5.2 5.2 0 0 1-.2-2.3q.2-1.2.8-2.4.7-1.2 1.8-2.2c1.4-1.4 2.9-2.1 4.4-2.3l2.1-3.9h.7Zm23.3-17.8 4.3 3.1a13 13 0 0 1-.8 3.4 16.2 16.2 0 0 1-1.8 3.3q-1.6 2.3-3.5 3.7-1.9 1.4-4 2-2.2.4-4.5 0-2.4-.6-4.9-2.3a13.5 13.5 0 0 1-3.7-3.7q-1.3-2.1-1.6-4.3-.3-2.3.4-4.6.7-2.4 2.2-4.6a13.6 13.6 0 0 1 2.2-2.5q1.1-1 2.8-1.8l4.4 2.9-1.5 2.3-4-2a7.3 7.3 0 0 0-2.3 2.1 6.8 6.8 0 0 0-1 2.8q-.3 1.4.2 3 .5 1.5 1.7 3 1.3 1.6 3.3 3 2 1.4 3.9 2c1.2.4 2.3.5 3.4.5 1 0 2-.4 3-.8a6.5 6.5 0 0 0 2.1-2q1-1.4 1.4-3.2l-3.3-3Zm9.6-8.2 1.4.7-4.1 7.9-1.4-.7.6-2-2.4-1.4-2.3-1.2-13-6.7-1.4 2.1-1.3-.6 1.8-7 .5-.2 4.3 2.4 11.2 5.8 2.4 1.2 2.4 1.2Zm8.1-20.5 1.5.6-2 6.1-2.7-.8q.9 1.8 1.1 3.4a6.2 6.2 0 0 1-.3 3.2q-.4 1-1 1.8c-.4.5-1 .8-1.6 1q-.9.4-2.1.3-1.3 0-3-.7l-8.2-3.3-1 1.7-1.3-.5 1.6-6.1.4-.3 4.6 1.9 5 1.9q2.2.8 3.3.5c.6-.1 1-.5 1.3-1.1q.3-.8.1-2-.2-1-.7-2.2l-9.6-3.8-1 1.7-1.2-.5 1.5-6 .4-.3 4.6 1.8 9.3 3.5Zm.6-10.3a7.6 7.6 0 0 0 1-1.3q.5-.6.6-1.3.4-1.6-1-3-1.2-1.4-4.4-2a9 9 0 0 0-4.8 0q-1.7.6-2 2.3a4.4 4.4 0 0 0 0 1.6l.5 1.7Zm-11.8-2.3a8.1 8.1 0 0 1-1.1-2.5q-.3-1.2 0-2.8a6.7 6.7 0 0 1 1-2.6 5.9 5.9 0 0 1 2.1-1.8q1.3-.7 3-.9 1.8-.2 4 .3c1.3.2 2.5.7 3.5 1.2s1.9 1.4 2.5 2.2a7.1 7.1 0 0 1 1.3 2.7q.4 1.4 0 3-.2 1.5-1 2.5-.7 1-1.9 1.7v.1l2 .6-1.8 6-1.5-.3v-2.2a94 94 0 0 0-2.7-.5l-2.5-.5-14.3-2.9-.8 2.5-1.4-.3-.2-7 .4-.5 4.8 1.1ZM89.7 106l4.4 3.2a13.8 13.8 0 0 1-.8 3.5 16.8 16.8 0 0 1-1.9 3.5q-1.5 2.2-3.5 3.7t-4.2 2q-2.2.6-4.6 0c-1.6-.3-3.3-1-5-2.2q-2.5-1.7-3.8-3.9-1.4-2-1.7-4.4-.3-2.3.4-4.7.7-2.4 2.3-4.7a14 14 0 0 1 2.1-2.5q1.2-1.1 3-2l4.5 3-1.6 2.3-4.1-2a7.9 7.9 0 0 0-2.3 2.3 6.6 6.6 0 0 0-1 2.8q-.3 1.5.2 3c.3 1.1 1 2.2 1.8 3.2q1.3 1.6 3.4 3 2 1.4 4 2c1.2.5 2.4.6 3.5.6q1.7-.2 3-1a6.9 6.9 0 0 0 2.2-2 9.4 9.4 0 0 0 1.4-3.2l-3.3-3.1Zm6.5-10.8-.6 1.2-.5 1q-.6 1.6-.3 2.7.2 1 1 1.9l1 .6.9.1q1 0 2-1a3.2 3.2 0 0 0 .5-.8q.3-.6.4-1.5Zm10.6-1c.4 1 .5 2 .3 2.7q-.2 1-1.1 2c-.7.7-1.4 1.2-2.1 1.4q-1.1.3-2 0 0 1.6-.5 2.8-.3 1.2-1.5 2.5-1.5 1.5-3.2 1.8-1.7.2-3.3-1.3a5.5 5.5 0 0 1-1-1.3q-.4-.8-.4-1.8 0-1.1.3-2.6.4-1.4 1.3-3.3l.6-1.4.8-1.5-.7-.8q-1.7-1.6-2.9-1.7-1.1-.2-2.3 1l-.4.5a6 6 0 0 0-.3.4l1.3 1.7q.9 1 1 2 0 1-.7 1.7a2.2 2.2 0 0 1-1.4.7q-.7 0-1.5-.4-1.3-1.6-1-4 .5-2.5 2.8-5 1.2-1.2 2.3-1.8 1-.6 2.2-.6 1.2 0 2.4.7 1.3.7 2.7 2l5.4 5.2q.4.4.8.5.4 0 .8-.3.2-.2.2-.5v-1.1Zm-1.5-13.6q-.3-2.1 0-3.7c.3-1 .7-1.9 1.4-2.4a3 3 0 0 1 1.5-.6q1-.2 2 .7.7.9.6 2 0 1-1 1.6c-.7.6-1.7.8-3 .6h-.1a10 10 0 0 0 0 1.8 7.4 7.4 0 0 0 .3 2l2.4 3a291 291 0 0 0 1.6 2l1.8 2.2 2.5-1.2 1 1.2-7.8 6.2-1-1.3L109 93a99 99 0 0 0-1.8-2.2l-1.7-2.1-1.3-1.6c-.3-.4-.5-.8-.8-1l-.6-.8-.6-.8a14 14 0 0 0-.7-.7l-2 1.3-1-1.1 3.7-5.9h.6Zm31.7-5.7.8 1.4-8 4.6-.7-1.4 1.6-1.4-1.3-2.5-1.4-2.4-1.7-3q-1-1.7-1.9-2.3-.8-.7-2 0-.9.5-1.4 1.5-.6 1-1 2.3l2.6 4.6 1.4 2.4 1.4 2.4 2-.6.8 1.3-8 4.6-.7-1.3 1.6-1.5-1.4-2.5-1.3-2.3-1-1.8-.7-1.1-.5-1-.5-.7-.6-.9-2.2 1-.7-1.2 4.5-5.3h.6l1.7 2.4.5-2q.2-.8.6-1.5.4-.7 1-1.2a7 7 0 0 1 1.3-1q2.3-1.3 4.2-.7 2 .7 3.6 3.5l2 3.5 1.4 2.3 1.5 2.5Zm6.8-11.7q1.2-.5 1.4-1.1.3-.7 0-1.8-.7-1.6-1.7-2.2-1-.7-2.1-.3a3.3 3.3 0 0 0-1 .7c-.4.4-.7.8-.9 1.4q-.3.8-.2 2 0 1.2.4 2.8Zm-3.4 3.2c.8 2 1.8 3.3 3 3.9q2 .8 4 0c1-.3 1.7-.8 2.2-1.5q.7-1 1-2.6l1.4.2q.2 2.5-1.2 4.4-1.4 1.8-4 2.8-1.8.7-3.5.7-1.8 0-3.3-.7-1.4-.7-2.6-2c-.8-1-1.5-2.1-2-3.5q-.7-2-.7-3.7a9 9 0 0 1 .7-3.5 8.4 8.4 0 0 1 2-2.8q1.3-1.2 3.1-1.9 1.6-.6 3.1-.6t2.8.7a6.9 6.9 0 0 1 2.2 1.7q1 1.1 1.6 2.7.4.9.5 1.8Zm20.6-5.7c1-.2 1.5-.7 1.8-1.6q.5-1.2 0-3.2-.4-2-1.3-2.9-1-1-2.3-.6-1.3.2-1.8 1.5-.4 1.2 0 3.2c.3 1.3.7 2.3 1.4 3q.9.9 2.2.6m.5 8.4q-1.2.3-2.1.3-.3 1 0 2 .3 1.7 1.4 2.2 1.2.4 2.9 0 2.7-.6 4-1.7 1.1-1.2.9-2.4-.2-.7-.9-1.1-.7-.5-2.4-.1Zm7.5-17.5-3.3.8q1 1 1.4 2.6.2 1.3 0 2.4a5.3 5.3 0 0 1-1 2.2c-.5.6-1.2 1.2-2 1.6q-1.1.7-2.7 1a9.5 9.5 0 0 1-2.8.3 6 6 0 0 0-.2.7v.7q.3 1.4 2.3 1l3.8-.9q3.6-.8 5.5.1 1.8 1 2.2 3a4.8 4.8 0 0 1 0 2.6q-.5 1.2-1.5 2.3-1 1.1-2.9 2-1.8 1-4.3 1.5-3.9.8-5.7.3c-1.3-.3-2-1-2.3-2.2a3.2 3.2 0 0 1 .3-2.1q.5-1 2.1-2.3c-.7-.2-1.3-.5-1.7-1a3.5 3.5 0 0 1-.8-1.6q-.3-1.2.2-2.2c.3-.8.8-1.5 1.5-2.2a6 6 0 0 1-2.6-1.5q-1-1-1.3-2.7c-.2-.8-.2-1.6 0-2.4a5.5 5.5 0 0 1 1-2.1q.7-1 1.9-1.7t2.8-1q2.8-.6 5 .3l4-2.3.6.3Zm6.8-6.5a3 3 0 0 1-2.2-.6q-1-.7-1-2-.2-1.3.6-2.1a3.1 3.1 0 0 1 2-1 3 3 0 0 1 2.2.6q1 .7 1.1 2 .1 1.2-.6 2-.8 1-2 1m6.3 18.9.2 1.6-9.2.9-.1-1.6 2.1-.7-.2-2.8-.3-2.7-.1-1.8a52 52 0 0 0-.3-2.4l-.3-2-2.4-.2-.2-1.3 6.8-3 .5.3.4 5.1.5 4.8.3 2.7.3 2.9Zm10.7-8.7q1.3 0 1.8-.5t.5-1.7c0-1.1-.1-2-.6-2.7-.5-.6-1.1-1-1.9-1a3 3 0 0 0-1.2.3c-.5.2-.9.5-1.3 1l-1 1.7c-.3.8-.5 1.7-.6 2.8Zm-4.4 1.7q0 3.2 1.5 4.7c1 1 2.2 1.6 3.6 1.6q1.6 0 2.7-.6c.7-.5 1.3-1.2 1.9-2l1.2.7a6.2 6.2 0 0 1-2.8 3.6q-2 1.1-4.8 1-1.9 0-3.5-.6c-1-.4-2-1-2.7-1.9q-1.1-1.2-1.7-2.9-.6-1.7-.6-3.9 0-2 .8-3.7a8.8 8.8 0 0 1 2-2.9 8.5 8.5 0 0 1 2.8-1.9q1.7-.6 3.6-.6c1.2 0 2.2.3 3.1.6q1.4.6 2.3 1.6a7.1 7.1 0 0 1 1.5 2.5q.5 1.4.5 3a8.4 8.4 0 0 1-.3 2Zm51.8-3.9a143 143 0 0 0-1.3 4.3l-1.3 4.3-.3 1.3-1.3 4.3-1.2 4.4 2.7 1.1-.5 1.7-10.8-3.1.5-1.7 3 .5 1.2-4.3 1.3-4.4 1.8-6-12.6 14.5-1.4-.4-3-19L213 65l3 1.4-.4 1.7-8.4-2.4.5-1.7 3.4.5 5.3-18.4-2.7-1.2.5-1.7 6.9 2 3.1 18.5 12.3-14 7.3 2-.5 1.8Zm10.4 17.7c.8.4 1.4.5 1.8.3q.7-.2 1.2-1.2.9-1.6.7-2.7c-.2-.8-.6-1.4-1.3-1.7a2.9 2.9 0 0 0-1.2-.4l-1.5.3q-.8.4-1.7 1.2-1 .8-1.8 2.2Zm-4.7-.4q-1.4 2.9-.8 4.9.6 2 2.5 3c1 .5 1.9.7 2.7.6q1.2-.2 2.6-1l.7 1.2q-1.7 1.8-4 2-2.4.1-4.8-1.1-1.7-1-2.9-2.3-1.1-1.3-1.6-2.8-.4-1.6-.2-3.4.2-1.8 1.3-3.7 1-1.8 2.3-3a8.9 8.9 0 0 1 3-1.7 8.3 8.3 0 0 1 3.5-.4 9.1 9.1 0 0 1 3.5 1c1 .6 1.8 1.2 2.4 2a6.6 6.6 0 0 1 1.4 2.5q.4 1.3.2 2.8-.2 1.5-1 3a8 8 0 0 1-1 1.5Zm15.5 17.4-.8 1.3L253 84l.9-1.3 2 .8 1.6-2.2 1.6-2.3 8.4-12.3-2-1.9.8-1.1 6.9 2.7.2.5-3 4.1-7.3 10.7-1.6 2.3-1.5 2.3Zm8.2 6.6-1 1.2-7-5.7 1-1.3 1.9 1a265 265 0 0 0 1.8-2l1.7-2.2 9.5-11.5-1.9-2 1-1.1 6.5 3.3.2.5-3.3 3.8-8.2 10-1.8 2.2a85 85 0 0 0-1.7 2.2Zm17.7-3c-1.8-1.8-4.4-1-8 2.4q-2.8 2.7-3.4 4.6-.6 2 .7 3.3a3 3 0 0 0 3.2.8c1.3-.4 2.9-1.4 4.7-3.2q5.4-5.2 2.8-7.9m1.3-1.2a9.5 9.5 0 0 1 1.9 3 8.4 8.4 0 0 1 .6 3.3q0 1.7-.7 3.4a9.4 9.4 0 0 1-2.2 3.3q-1.6 1.5-3.3 2.1-1.7.7-3.4.6a8 8 0 0 1-3.3-.8q-1.6-.8-3-2.2-1.3-1.4-2-3a8 8 0 0 1-.7-3.3q0-1.7.8-3.4.7-1.7 2.3-3.2c1-1 2.1-1.7 3.3-2.1a8.8 8.8 0 0 1 3.5-.6 8.8 8.8 0 0 1 3.3.8 9.6 9.6 0 0 1 2.9 2m6.7 35.7-1.3.8-5.2-7.6 1.3-.9 1.6 1.6a87 87 0 0 0 2.4-1.6l2.2-1.5 2.9-2a8 8 0 0 0 2.2-2q.6-.9-.1-2a4.1 4.1 0 0 0-1.6-1.3c-.7-.3-1.5-.6-2.5-.8l-4.3 3-2.3 1.5-2.3 1.6.8 2-1.3.9-5.2-7.6 1.3-1 1.6 1.6 2.4-1.6 2.2-1.5 1.7-1.1 1-.8 1-.5.7-.6.8-.6-1.1-2.2 1.1-.8 5.6 4.1v.7l-2.2 1.8 2 .3q.9.2 1.6.6a5.4 5.4 0 0 1 2.3 2.1q1.5 2.2 1 4.1-.5 2-3.2 3.9l-3.3 2.2-2.3 1.6a79 79 0 0 0-2.3 1.6Zm0 0"/><g clip-path="url(#h)"><g clip-path="url(#i)"><g clip-path="url(#j)"><use xlink:href="#reuse-0"/></g></g></g><g clip-path="url(#k)"><g clip-path="url(#l)"><g clip-path="url(#m)"><path fill="#fff" d="m214.6 242.3 98-90.9 10.4 11.2-98 90.8Zm0 0"/></g></g></g><g clip-path="url(#n)"><g clip-path="url(#o)"><g clip-path="url(#p)"><path fill="#c41230" d="m264.7 202.1 4.4-3.8 3.8 4.4-4.4 3.9Zm0 0"/></g></g></g><g clip-path="url(#q)"><g clip-path="url(#r)"><g clip-path="url(#s)"><g clip-path="url(#t)"><path fill="#231f20" d="m220.3 155.8 3.3 64.7 6 11.6 6.6.5a11.3 11.3 0 0 0-2.6-.6h-.1l.8-.4c.2-.1-.2.1-1.5-.5a4 4 0 0 1-.5-.3c.5 0 .8-.2 1.1-.4.1 0-.3.2-1.5-.4-.4-.2-.8-.5-1-.8-7.2-9.5 3.7-19.6 4.8-22.7l.3 2.4s1.3-2 2.2-4.3l1.1-3.6.6 3s2.2-1.6 2.2-9.7c-.2-26.7-12.6-38.2-3.2-54.6l-5.8-5.2-12.8 21.3Zm0 0"/></g></g></g></g><g clip-path="url(#u)"><g clip-path="url(#v)"><g clip-path="url(#w)"><g clip-path="url(#x)"><path fill="#231f20" d="m134.2 220.8 4.8 11a82.5 82.5 0 0 0 41.5 5.9c-.3.3.5 1.3 1.6.7h.1c-.3.6.7.8 2.3-.3h.1c-.3.8.9 1 2.6-.3h.3c-.4 1.1 1.2 1.3 3.2-.6-.3 1.3 1.5 1.5 3.6-.6-.3 1.4 1.6 1.7 3.7-.7l.2-.2h.1c-.1 2 1.4-2.9 3.5-5.3.3-.3.7 4.8 1 4.3l6.2-34.3-74.8 20.3Zm0 0"/></g></g></g></g><g clip-path="url(#y)"><g clip-path="url(#z)"><g clip-path="url(#A)"><g clip-path="url(#B)"><path fill="#231f20" d="M127.3 236.7c31.1 4.3 44.8 2.3 51 1.5l-2.1 1.7s2.4.2 6.3-.5l3.6-.8-3 2s8.8.2 18.4-4c10.6-4.4 14.9-10.4 20.2-14.6L139 232Zm0 0"/></g></g></g></g><g clip-path="url(#C)"><g clip-path="url(#D)"><g clip-path="url(#E)"><g clip-path="url(#F)"><path fill="#231f20" d="M199.2 119.3s-9.3-17.4-20.7-15.8c0 0 2.4 3.6 3.7 10.3.6 3.4 1.2 12.7 11.1 16l5.9-10.5Zm0 0"/></g></g></g></g><g clip-path="url(#G)"><g clip-path="url(#H)"><g clip-path="url(#I)"><g clip-path="url(#J)"><path fill="#231f20" d="M206.6 118.8s-2.8-19.4-14.1-21.8c0 0 1 4.2 0 11-.6 3.3-3.2 12.3 5 18.8Zm0 0"/></g></g></g></g><g clip-path="url(#K)"><g clip-path="url(#L)"><g clip-path="url(#M)"><g clip-path="url(#N)"><path fill="#231f20" d="M200.3 114s5.5-1 6.5-3.2 2.1-3 4.5-5.3c0 0-1.6 3.3-.6 5.7 0 0 3.4-4.8 8.2-7 0 0-1.2 1.4-.7 2.5 0 0 9.8-4.3 12.3-3.2 0 0-9.6 3-7.8 8.1 0 0 18.5-7.5 20-11.1 0 0 .8 1.3.4 2.8 0 0 6.2-2.5 9.5-2.3 0 0 2.3 18 2.9 20.4 0 0-11.5-3.2-14.7 14.2 0 0-15.7-7-4.4 26.4 0 0-28.2 10.5-43-5.6 0 0 .3-20.3-8.7-25.7 0 0 2.1-.2 5.2 1.8 0 0-4.6-6.3-7.5-8 0 0 5.8 1.7 8.5 3.5 0 0 2.2-14.1 9.4-14Zm0 0"/></g></g></g></g><g clip-path="url(#O)"><g clip-path="url(#P)"><g clip-path="url(#Q)"><g clip-path="url(#R)"><path fill="#231f20" d="M261 121.9c-.1-3.5-3.2-4.6-4.5-8.5l-29.3 17.8c7.4 19.4 27.8 17.4 27.8 17.4-2.8-2.7-3-5.4-3-5.4s3.9 2.6 6 4.9c1.5 1.5 3.7 5.2 3.7 5.2s4.5-12.7.8-20.9c-3.5-7.5-1.8-9.6-1.5-10.5Zm0 0"/></g></g></g></g><g clip-path="url(#S)"><g clip-path="url(#T)"><g clip-path="url(#U)"><g clip-path="url(#V)"><path fill="#231f20" d="M260.2 124.8c.5 1.5 4 7.8 4 7.8 1.3-24.4-9.3-27.5-9.3-27.5-.6-2.5-2-4-2-4-3.4-.3-10 2.2-10 2.2.5-1.6-.2-3-.2-3-.9 2-6.2 5.3-11.3 8.2l31 24a19.8 19.8 0 0 1-2.2-7.7m0 0"/></g></g></g></g><g clip-path="url(#W)"><g clip-path="url(#X)"><g clip-path="url(#Y)"><g clip-path="url(#Z)"><path fill="#231f20" d="M236.7 231.6c2.1.2 5.5-.5 5.5-.5-2.1 0-7.4-2.4-7.4-2.4 2.4.3 3.3-.5 3.3-.5-2.7-.2-6-2.2-8.9-4.5l8 8.7-.5-.8m0 0"/></g></g></g></g><g clip-path="url(#aa)"><g clip-path="url(#ab)"><g clip-path="url(#ac)"><g clip-path="url(#ad)"><path fill="#231f20" d="M135.8 188.5c-13.8-17.2-11.4-34.7-9.4-49 .2-1-.6-1.6-1.5-.5-.3.2-.5.6-.8 1.1a53 53 0 0 0-8 26.5c-1.4-1.6-4.4-3.2-4.4-3.2 1.5 1.4 4 6.6 4 6.6-1.7-1.8-2.8-1.7-2.8-1.7 1.8 1.8 3 5.1 3.6 8.6 1 10 4.2 20 9 29.2l1.4-2.9 1.2 2.2 7.7-16.9Zm0 0"/></g></g></g></g><g clip-path="url(#ae)"><g clip-path="url(#af)"><g clip-path="url(#ag)"><g clip-path="url(#ah)"><path fill="#231f20" d="M108 262.6c-10.4-6.7-13.5-29-12.8-34.8l-1.6 2.5s-.1-3 .3-6l.9-4.7-2.3 3s1.5-12 6-21.3c5.2-11 11.9-15.9 16.7-21.3l-9.4 51.4 2.2 31.2Zm0 0"/></g></g></g></g><g clip-path="url(#ai)"><g clip-path="url(#aj)"><g clip-path="url(#ak)"><g clip-path="url(#al)"><path fill="#231f20" d="m146.1 231-10.6-3.2s-.1 2.5-6.8 9.1c-6.8 6.7-6 17-6 17s3.8-.6 4.7 3.1c1 3.7-1 5.3-3 5.8-2.2.5-5.6 1.2-7.9 1.3-5 .1-7.5 0-10.3-3-1.2-1.2-.6-7.4-1.1-8-.6-.6-4.3-8.2-4.8-11-.5-3 1.9-17.1 1.4-18.4-.5-1.3-3-8.3-2.8-10.1.2-1.8-.2-15 6-23 6.4-8 10.7-12.2 15.7-13.9 6-2.1 18.5-1.9 18.5-1.9h4.5L146 231Zm0 0"/></g></g></g></g><g clip-path="url(#am)"><g clip-path="url(#an)"><g clip-path="url(#ao)"><g clip-path="url(#ap)"><path fill="#231f20" d="M237.1 201.8a75.8 75.8 0 0 0-.4-33.4c-2-10-6.8-10-3.4-22.6l-6.6-7.2-37.8-3.1c6 11.4 2.8 27.6-1.6 30.7-13.5 9.7-45.4 7.6-51.4 9-2.6.5-6 1-9.8 2.6l.4 1.7.8-.4-.9.4 7.5 40.1c.7 4-7.2 13.3-6.5 17 4.6 1.8 14-4 13.1.3h.2c9-.6 16.5-1 32.4-4.4 16.4-3.5 32.4-5.2 35-5.7l1.7 4-2.1.4.3.9s2.2-.3 2.3-.2c.7 1.7 1.4 3.4 2 4.5 2.3 4 4.4 4.8 6.3 5.4l25.6-4.7s.5-1 .2-1.8c-1.2-3.2-5-3.9-7-4.1h-.1l.9-.4c.1-.1-.3.1-1.6-.5a3.3 3.3 0 0 1-.5-.3c.5 0 .9 0 1.2-.2.1 0-.4 0-1.6-.7a7.4 7.4 0 0 1-1.1-.6l-.8-1.2-.4-1-.1.1a18.3 18.3 0 0 1-2.2-8.5c0-4.5 5-10.8 6-16ZM135 175.6Zm0 0"/></g></g></g></g><g clip-path="url(#aq)"><g clip-path="url(#ar)"><g clip-path="url(#as)"><g clip-path="url(#at)"><path fill="#231f20" d="M208 226.8s4.6 16 14.3 16c5 0 8.3-.4 10-.7 2.8-.5 14-2.5 12.1-6.8-3-6.9-14.9-3.2-14.9-3.2l-14.8-12-6.7 6.7Zm0 0"/></g></g></g></g><g clip-path="url(#au)"><g clip-path="url(#av)"><g clip-path="url(#aw)"><g clip-path="url(#ax)"><path fill="#231f20" d="M126.8 242.9s-2.6 7.6 0 10.6c0 0-3.9-.5-5.5-4.2Zm0 0"/></g></g></g></g><g clip-path="url(#ay)"><g clip-path="url(#az)"><g clip-path="url(#aA)"><g clip-path="url(#aB)"><path fill="#231f20" d="M124.9 244.6s-.1 8 3.3 10c0 0-3.9.8-6.6-2.2Zm0 0"/></g></g></g></g><g clip-path="url(#aC)"><g clip-path="url(#aD)"><g clip-path="url(#aE)"><g clip-path="url(#aF)"><path fill="#231f20" d="M217.7 165.5c1.2 1.8 21.6 7.5 21.6 7.5l-7.4-3 .4.1.5.2.5.2h.1l.4.3h.2l.4.2.7.3.2.1.5.2.2.1.6.2.2.1.6.3.4.1.5.2a35 35 0 0 0 1 .4l-2.6-10.4c-2.8-1.6-11-5.3-13.4-6.3-.8.2-4.7 9-5.6 9.2Zm0 0"/></g></g></g></g><g clip-path="url(#aG)"><g clip-path="url(#aH)"><g clip-path="url(#aI)"><g clip-path="url(#aJ)"><path fill="#231f20" d="M132.7 256.8c-2.7-6.4-13.2-3.7-14.7-3.3l-1 1.2 1.7 9.2a35 35 0 0 0 1.8-.3c2.9-.5 14-2.5 12.2-6.8m0 0"/></g></g></g></g><g clip-path="url(#aK)"><g clip-path="url(#aL)"><g clip-path="url(#aM)"><g clip-path="url(#aN)"><path fill="#231f20" d="m120.6 259 4.7-1-.4-13.4 3.2-5.8c.2-.5-10.4-1.4-10.4-1.4l-2.9 5.4 5.8 16.2Zm0 0"/></g></g></g></g><g clip-path="url(#aO)"><g clip-path="url(#aP)"><g clip-path="url(#aQ)"><g clip-path="url(#aR)"><path fill="#231f20" d="M131 234.2s-3.3 7.4-1 10.5c0 0-3.8-.8-5-4.6l6-5.9Zm0 0"/></g></g></g></g><g clip-path="url(#aS)"><g clip-path="url(#aT)"><g clip-path="url(#aU)"><g clip-path="url(#aV)"><path fill="#231f20" d="M128.1 238.8s-2.6 7.6 0 10.5c0 0-3.9-.5-5.5-4.1Zm0 0"/></g></g></g></g><g clip-path="url(#aW)"><g clip-path="url(#aX)"><g clip-path="url(#aY)"><g clip-path="url(#aZ)"><path fill="#231f20" d="m239.3 173-2.3-9.3-.2-1c-2.9-1.7-11-5.4-13.5-6.4-.8.2-4.7 9-5.6 9.2l.3.3c2.9 2 21.2 7.2 21.3 7.2h-.2.2Zm0 0"/></g></g></g></g><g clip-path="url(#ba)"><g clip-path="url(#bb)"><g clip-path="url(#bc)"><g clip-path="url(#bd)"><path fill="#c41230" d="M246.7 174.3a68 68 0 0 0-9.7-10.6l2.3 9.3a2 2 0 0 0-.2 0h.2c-.2 0-18.4-5.2-21.3-7.2l-1.5-.4a256 256 0 0 1-4.9-1.8c-12.7-5.6-19.5-16-19.5-16l-.3-2.6s-1.1-.9-2.4.1c-.5.5-1.3 1.8-1.4 3.3-2.3 23.6 22.1 31.2 35.4 37 13.2 5.7 20.8 12.3 20.8 12.3.6-.5.6-4.3 1-7.6a27.6 27.6 0 0 1 1.4-4.9c1.7-4.5 1.7-8 .1-10.9Zm0 0"/></g></g></g></g></svg>